<?xml version="1.0" standalone="no"?>
<!DOCTYPE svg PUBLIC "-//W3C//DTD SVG 20010904//EN"
 "http://www.w3.org/TR/2001/REC-SVG-20010904/DTD/svg10.dtd">
<svg version="1.0" xmlns="http://www.w3.org/2000/svg"
 width="100.000000pt" height="100.000000pt" viewBox="0 0 100.000000 100.000000"
 preserveAspectRatio="xMidYMid meet">
<metadata>
Created by potrace 1.11, written by Peter Selinger 2001-2013
</metadata>
<g transform="translate(0.000000,100.000000) scale(0.100000,-0.100000)"
fill="#000000" stroke="none">
<path d="M0 500 l0 -500 500 0 500 0 0 500 0 500 -500 0 -500 0 0 -500z m950
-5 l0 -455 -450 0 -450 0 0 455 0 455 450 0 450 0 0 -455z"/>
<path d="M763 743 c-9 -3 -13 -28 -13 -75 l0 -71 -57 6 c-126 13 -163 -28
-163 -181 0 -101 15 -153 48 -171 30 -16 108 -13 143 4 26 14 30 14 35 0 3 -8
17 -15 30 -15 l24 0 0 255 c0 236 -1 255 -17 254 -10 0 -24 -3 -30 -6z m-50
-199 l37 -7 0 -101 c0 -93 -2 -102 -22 -115 -36 -22 -78 -31 -104 -21 -23 9
-24 13 -24 114 0 136 9 147 113 130z"/>
<path d="M273 601 c-69 -18 -93 -64 -93 -181 0 -141 34 -180 154 -180 96 0
133 19 108 56 -5 8 -24 9 -68 2 -86 -14 -118 1 -122 60 l-3 42 105 0 106 0 -1
48 c0 62 -18 111 -49 133 -30 22 -93 31 -137 20z m101 -67 c9 -8 16 -31 16
-50 l0 -34 -70 0 -70 0 0 32 c0 17 7 40 17 50 20 23 85 24 107 2z"/>
</g>
</svg>
